<svg width="22" height="22" viewBox="0 0 22 22" fill="none" xmlns="http://www.w3.org/2000/svg">
<path d="M3.93684 11.5172H1.92248L3.14028 13.1218L8.37975 20.0253L8.38137 20.0274C8.57112 20.276 8.57113 20.7274 8.38136 20.9761C8.38074 20.9769 8.38013 20.9777 8.37952 20.9785L8.3699 20.9641L8.35138 20.9397L1.14349 11.4569L1.14232 11.4554C0.943331 11.1947 0.968262 10.7592 1.1229 10.5692L1.13341 10.5563L1.14349 10.5431L8.35021 1.06185C8.35035 1.06167 8.35048 1.0615 8.35061 1.06133C8.36155 1.04703 8.37152 1.03552 8.38026 1.02634C8.38911 1.03563 8.39921 1.0473 8.41031 1.06185C8.59988 1.31025 8.60007 1.76102 8.41088 2.00983C8.41069 2.01007 8.4105 2.01032 8.41031 2.01057L3.14351 8.87397L1.90897 10.4828H3.93684H20.8156C20.8259 10.4905 20.8427 10.506 20.8649 10.5351C20.9314 10.6222 21 10.7842 21 11C21 11.2158 20.9314 11.3778 20.8649 11.4649C20.8427 11.494 20.8259 11.5095 20.8156 11.5172H3.93684ZM20.8041 10.4759C20.8041 10.4757 20.8059 10.4763 20.8093 10.4784C20.8057 10.4772 20.8041 10.4761 20.8041 10.4759ZM20.8041 11.5241C20.8041 11.5239 20.8058 11.5228 20.8093 11.5216C20.8059 11.5237 20.8041 11.5243 20.8041 11.5241Z" fill="#D3D3D3" stroke="white" stroke-width="2"/>
</svg>
