<svg width="20" height="21" viewBox="0 0 20 21" fill="none" xmlns="http://www.w3.org/2000/svg">
<path opacity="0.5" d="M19.9442 16.1317C19.9442 16.5781 19.7879 16.9576 19.4754 17.2701L17.1986 19.5468C16.8861 19.8593 16.5067 20.0156 16.0602 20.0156C15.6138 20.0156 15.2344 19.8593 14.9219 19.5468L9.99998 14.625L5.07811 19.5468C4.76561 19.8593 4.38614 20.0156 3.93971 20.0156C3.49329 20.0156 3.11382 19.8593 2.80132 19.5468L0.524536 17.2701C0.212036 16.9576 0.0557861 16.5781 0.0557861 16.1317C0.0557861 15.6852 0.212036 15.3058 0.524536 14.9933L5.44641 10.0714L0.524536 5.14952C0.212036 4.83702 0.0557861 4.45755 0.0557861 4.01113C0.0557861 3.5647 0.212036 3.18523 0.524536 2.87273L2.80132 0.595947C3.11382 0.283447 3.49329 0.127197 3.93971 0.127197C4.38614 0.127197 4.76561 0.283447 5.07811 0.595947L9.99998 5.51782L14.9219 0.595947C15.2344 0.283447 15.6138 0.127197 16.0602 0.127197C16.5067 0.127197 16.8861 0.283447 17.1986 0.595947L19.4754 2.87273C19.7879 3.18523 19.9442 3.5647 19.9442 4.01113C19.9442 4.45755 19.7879 4.83702 19.4754 5.14952L14.5536 10.0714L19.4754 14.9933C19.7879 15.3058 19.9442 15.6852 19.9442 16.1317Z" fill="white"/>
</svg>
